<?xml version="1.0" encoding="UTF-8" standalone="no"?><!DOCTYPE svg PUBLIC "-//W3C//DTD SVG 1.1//EN" "http://www.w3.org/Graphics/SVG/1.1/DTD/svg11.dtd"><svg width="100%" height="100%" viewBox="0 0 3624 1197" version="1.1" xmlns="http://www.w3.org/2000/svg" xmlns:xlink="http://www.w3.org/1999/xlink" xml:space="preserve" xmlns:serif="http://www.serif.com/" style="fill-rule:evenodd;clip-rule:evenodd;stroke-linecap:round;stroke-linejoin:round;stroke-miterlimit:10;"><g><path d="M721.347,519.792l-161.973,-93.988l0,-138.607l73.818,-0l-245.807,-245.809l-245.809,245.809l73.818,-0l-0,138.607l-161.973,93.988l0,182.338l333.964,-192.207l333.962,192.207l0,300.296l-239.094,-0l-0,-165.041c-0,-51.449 -41.708,-93.156 -93.156,-93.156c-51.448,0 -93.156,41.707 -93.156,93.156l-0,165.041l-242.52,-0l0,-158.607" style="fill:none;fill-rule:nonzero;stroke:#1c2e35;stroke-width:39.58px;"/><g transform="matrix(628.16,0,0,628.16,3028.14,463.07)"></g><text x="901.818px" y="463.07px" style="font-family:'NexaText-Bold', 'Nexa Text';font-weight:700;font-size:628.16px;fill:#1c2e35;">C<tspan x="1335.88px 1716.54px 2094.07px 2329px 2637.42px " y="463.07px 463.07px 463.07px 463.07px 463.07px ">hurch</tspan></text><g transform="matrix(628.16,0,0,628.16,3577.15,1033.72)"></g><text x="872.923px" y="1033.72px" style="font-family:'NexaText-Bold', 'Nexa Text';font-weight:700;font-size:628.16px;fill:#1c2e35;">D<tspan x="1335.25px 1488.52px 1723.45px 2063.91px 2372.34px 2621.72px 2987.31px 3231.03px " y="1033.72px 1033.72px 1033.72px 1033.72px 1033.72px 1033.72px 1033.72px 1033.72px ">irectory</tspan></text></g></svg>