<?xml version="1.0" encoding="UTF-8" standalone="no"?>
<!DOCTYPE svg PUBLIC "-//W3C//DTD SVG 1.1//EN" "http://www.w3.org/Graphics/SVG/1.1/DTD/svg11.dtd">
<svg width="100%" height="100%" viewBox="0 0 1160 384" version="1.1" xmlns="http://www.w3.org/2000/svg" xmlns:xlink="http://www.w3.org/1999/xlink" xml:space="preserve" xmlns:serif="http://www.serif.com/" style="fill-rule:evenodd;clip-rule:evenodd;stroke-linecap:round;stroke-linejoin:round;stroke-miterlimit:10;">
    <g transform="matrix(5.27383,0,0,5.27383,-2247.03,-3560.32)">
        <g transform="matrix(0.0932853,0,0,0.0917052,470.835,707.023)">
            <path d="M0,-2.853L-109.231,-66.236L-109.231,-159.71L-59.45,-159.71L-225.217,-325.478L-390.985,-159.71L-341.204,-159.71L-341.204,-66.236L-450.435,-2.853L-450.435,120.112L-225.217,-9.508L0,120.112L0,322.625L-161.24,322.625L-161.24,211.325C-161.24,176.629 -189.367,148.503 -224.062,148.503C-258.758,148.503 -286.885,176.629 -286.885,211.325L-286.885,322.625L-450.435,322.625L-450.435,215.664" style="fill:none;fill-rule:nonzero;stroke:rgb(28,46,53);stroke-width:25.97px;"/>
        </g>
        <g transform="matrix(0.171136,0,0,0.171136,377.266,647.805)">
            <g transform="matrix(222.717,0,0,222.717,604.931,323.631)">
                <path d="M0.416,0.014C0.525,0.014 0.612,-0.02 0.677,-0.082L0.609,-0.169C0.552,-0.117 0.49,-0.096 0.418,-0.096C0.27,-0.096 0.167,-0.2 0.167,-0.352C0.167,-0.502 0.268,-0.604 0.415,-0.604C0.486,-0.604 0.546,-0.58 0.603,-0.528L0.671,-0.615C0.603,-0.678 0.516,-0.714 0.417,-0.714C0.2,-0.714 0.047,-0.563 0.047,-0.348C0.047,-0.135 0.198,0.014 0.416,0.014Z" style="fill:rgb(28,46,53);fill-rule:nonzero;"/>
            </g>
            <g transform="matrix(222.717,0,0,222.717,758.828,323.631)">
                <path d="M0.074,-0L0.186,-0L0.186,-0.26C0.186,-0.344 0.244,-0.405 0.324,-0.405C0.405,-0.405 0.444,-0.352 0.444,-0.268L0.444,-0L0.556,-0L0.556,-0.278C0.556,-0.424 0.483,-0.504 0.35,-0.504C0.272,-0.504 0.21,-0.462 0.179,-0.41L0.177,-0.41C0.183,-0.449 0.186,-0.498 0.186,-0.549L0.186,-0.7L0.074,-0.7L0.074,-0Z" style="fill:rgb(28,46,53);fill-rule:nonzero;"/>
            </g>
            <g transform="matrix(222.717,0,0,222.717,893.795,323.631)">
                <path d="M0.276,0.01C0.348,0.01 0.408,-0.02 0.44,-0.081L0.443,-0.081C0.44,-0.052 0.44,-0.026 0.44,-0L0.543,-0L0.543,-0.494L0.431,-0.494L0.431,-0.234C0.431,-0.151 0.377,-0.089 0.301,-0.089C0.225,-0.089 0.178,-0.142 0.178,-0.228L0.178,-0.494L0.066,-0.494L0.066,-0.225C0.066,-0.082 0.147,0.01 0.276,0.01Z" style="fill:rgb(28,46,53);fill-rule:nonzero;"/>
            </g>
            <g transform="matrix(222.717,0,0,222.717,1027.65,323.631)">
                <path d="M0.074,-0L0.186,-0L0.186,-0.256C0.186,-0.346 0.237,-0.403 0.314,-0.403C0.332,-0.403 0.348,-0.401 0.363,-0.395L0.392,-0.494C0.372,-0.501 0.348,-0.504 0.325,-0.504C0.25,-0.504 0.197,-0.462 0.177,-0.413L0.175,-0.413C0.177,-0.442 0.178,-0.468 0.178,-0.494L0.074,-0.494L0.074,-0Z" style="fill:rgb(28,46,53);fill-rule:nonzero;"/>
            </g>
            <g transform="matrix(222.717,0,0,222.717,1110.94,323.631)">
                <path d="M0.296,0.011C0.368,0.011 0.426,-0.007 0.478,-0.048L0.427,-0.134C0.382,-0.098 0.341,-0.088 0.297,-0.088C0.216,-0.088 0.148,-0.144 0.148,-0.248C0.148,-0.346 0.214,-0.406 0.301,-0.406C0.338,-0.406 0.379,-0.397 0.416,-0.369L0.471,-0.453C0.426,-0.487 0.366,-0.505 0.301,-0.505C0.153,-0.505 0.036,-0.41 0.036,-0.246C0.036,-0.078 0.152,0.011 0.296,0.011Z" style="fill:rgb(28,46,53);fill-rule:nonzero;"/>
            </g>
            <g transform="matrix(222.717,0,0,222.717,1220.3,323.631)">
                <path d="M0.074,-0L0.186,-0L0.186,-0.26C0.186,-0.344 0.244,-0.405 0.324,-0.405C0.405,-0.405 0.444,-0.352 0.444,-0.268L0.444,-0L0.556,-0L0.556,-0.278C0.556,-0.424 0.483,-0.504 0.35,-0.504C0.272,-0.504 0.21,-0.462 0.179,-0.41L0.177,-0.41C0.183,-0.449 0.186,-0.498 0.186,-0.549L0.186,-0.7L0.074,-0.7L0.074,-0Z" style="fill:rgb(28,46,53);fill-rule:nonzero;"/>
            </g>
        </g>
        <g transform="matrix(0.171136,0,0,0.171136,375.513,682.43)">
            <g transform="matrix(222.717,0,0,222.717,604.931,323.631)">
                <path d="M0.361,-0.7L0.093,-0.7L0.093,-0L0.359,-0C0.57,-0 0.711,-0.142 0.711,-0.352C0.711,-0.561 0.57,-0.7 0.361,-0.7ZM0.361,-0.108L0.209,-0.108L0.209,-0.592L0.359,-0.592C0.5,-0.592 0.593,-0.494 0.593,-0.348C0.593,-0.204 0.501,-0.108 0.361,-0.108Z" style="fill:rgb(28,46,53);fill-rule:nonzero;"/>
            </g>
            <g transform="matrix(222.717,0,0,222.717,768.851,323.631)">
                <path d="M0.129,-0.568C0.171,-0.568 0.201,-0.597 0.201,-0.636C0.201,-0.677 0.171,-0.706 0.129,-0.706C0.087,-0.706 0.057,-0.677 0.057,-0.636C0.057,-0.597 0.087,-0.568 0.129,-0.568ZM0.074,-0L0.186,-0L0.186,-0.494L0.074,-0.494L0.074,-0Z" style="fill:rgb(28,46,53);fill-rule:nonzero;"/>
            </g>
            <g transform="matrix(222.717,0,0,222.717,823.194,323.631)">
                <path d="M0.074,-0L0.186,-0L0.186,-0.256C0.186,-0.346 0.237,-0.403 0.314,-0.403C0.332,-0.403 0.348,-0.401 0.363,-0.395L0.392,-0.494C0.372,-0.501 0.348,-0.504 0.325,-0.504C0.25,-0.504 0.197,-0.462 0.177,-0.413L0.175,-0.413C0.177,-0.442 0.178,-0.468 0.178,-0.494L0.074,-0.494L0.074,-0Z" style="fill:rgb(28,46,53);fill-rule:nonzero;"/>
            </g>
            <g transform="matrix(222.717,0,0,222.717,906.49,323.631)">
                <path d="M0.529,-0.252C0.529,-0.421 0.43,-0.505 0.297,-0.505C0.145,-0.505 0.036,-0.401 0.036,-0.247C0.036,-0.089 0.141,0.011 0.295,0.011C0.369,0.011 0.454,-0.012 0.505,-0.066L0.452,-0.14C0.406,-0.1 0.346,-0.085 0.299,-0.085C0.217,-0.085 0.156,-0.132 0.149,-0.207L0.527,-0.207C0.528,-0.221 0.529,-0.236 0.529,-0.252ZM0.293,-0.409C0.365,-0.409 0.418,-0.37 0.423,-0.292L0.15,-0.292C0.164,-0.371 0.22,-0.409 0.293,-0.409Z" style="fill:rgb(28,46,53);fill-rule:nonzero;"/>
            </g>
            <g transform="matrix(222.717,0,0,222.717,1027.2,323.631)">
                <path d="M0.296,0.011C0.368,0.011 0.426,-0.007 0.478,-0.048L0.427,-0.134C0.382,-0.098 0.341,-0.088 0.297,-0.088C0.216,-0.088 0.148,-0.144 0.148,-0.248C0.148,-0.346 0.214,-0.406 0.301,-0.406C0.338,-0.406 0.379,-0.397 0.416,-0.369L0.471,-0.453C0.426,-0.487 0.366,-0.505 0.301,-0.505C0.153,-0.505 0.036,-0.41 0.036,-0.246C0.036,-0.078 0.152,0.011 0.296,0.011Z" style="fill:rgb(28,46,53);fill-rule:nonzero;"/>
            </g>
            <g transform="matrix(222.717,0,0,222.717,1136.56,323.631)">
                <path d="M0.366,-0.106C0.346,-0.096 0.324,-0.09 0.304,-0.09C0.257,-0.09 0.235,-0.118 0.235,-0.172L0.235,-0.401L0.377,-0.401L0.377,-0.494L0.235,-0.494L0.235,-0.635L0.124,-0.623L0.124,-0.494L0.031,-0.494L0.031,-0.401L0.124,-0.401L0.124,-0.169C0.124,-0.054 0.182,0.007 0.286,0.007C0.327,0.007 0.359,-0 0.397,-0.017L0.366,-0.106Z" style="fill:rgb(28,46,53);fill-rule:nonzero;"/>
            </g>
            <g transform="matrix(222.717,0,0,222.717,1224.98,323.631)">
                <path d="M0.295,0.011C0.457,0.011 0.561,-0.1 0.561,-0.249C0.561,-0.396 0.461,-0.505 0.303,-0.505C0.141,-0.505 0.036,-0.394 0.036,-0.245C0.036,-0.098 0.137,0.011 0.295,0.011ZM0.298,-0.088C0.207,-0.088 0.148,-0.16 0.148,-0.249C0.148,-0.335 0.207,-0.406 0.3,-0.406C0.391,-0.406 0.45,-0.334 0.45,-0.245C0.45,-0.159 0.391,-0.088 0.298,-0.088Z" style="fill:rgb(28,46,53);fill-rule:nonzero;"/>
            </g>
            <g transform="matrix(222.717,0,0,222.717,1354.6,323.631)">
                <path d="M0.074,-0L0.186,-0L0.186,-0.256C0.186,-0.346 0.237,-0.403 0.314,-0.403C0.332,-0.403 0.348,-0.401 0.363,-0.395L0.392,-0.494C0.372,-0.501 0.348,-0.504 0.325,-0.504C0.25,-0.504 0.197,-0.462 0.177,-0.413L0.175,-0.413C0.177,-0.442 0.178,-0.468 0.178,-0.494L0.074,-0.494L0.074,-0Z" style="fill:rgb(28,46,53);fill-rule:nonzero;"/>
            </g>
            <g transform="matrix(222.717,0,0,222.717,1441.01,323.631)">
                <path d="M0.418,-0.494L0.332,-0.251C0.315,-0.203 0.301,-0.16 0.284,-0.109L0.282,-0.109C0.262,-0.169 0.252,-0.197 0.23,-0.252L0.134,-0.494L0.012,-0.494L0.226,0.014L0.204,0.067C0.182,0.122 0.162,0.136 0.129,0.136C0.111,0.136 0.09,0.131 0.07,0.119L0.032,0.21C0.063,0.228 0.099,0.239 0.135,0.239C0.212,0.239 0.263,0.198 0.3,0.105L0.539,-0.494L0.418,-0.494Z" style="fill:rgb(28,46,53);fill-rule:nonzero;"/>
            </g>
        </g>
    </g>
</svg>
