<?xml version="1.0" encoding="UTF-8" standalone="no"?>
<!DOCTYPE svg PUBLIC "-//W3C//DTD SVG 1.1//EN" "http://www.w3.org/Graphics/SVG/1.1/DTD/svg11.dtd">
<svg width="100%" height="100%" viewBox="0 0 2418 877" version="1.1" xmlns="http://www.w3.org/2000/svg" xmlns:xlink="http://www.w3.org/1999/xlink" xml:space="preserve" xmlns:serif="http://www.serif.com/" style="fill-rule:evenodd;clip-rule:evenodd;stroke-linejoin:round;stroke-miterlimit:2;">
    <g transform="matrix(1,0,0,1,-441.238,-836.585)">
        <g transform="matrix(1.81413,0,0,1.81413,-1238.93,-1087.89)">
            <g transform="matrix(4.16667,0,0,4.16667,609.489,802.495)">
                <path d="M128,132.398L128,148C128,156.838 120.836,164 112,164L108,164C102.426,164 98,159.545 98,154C98,172.115 101.885,176 120,176C138.115,176 142,172.115 142,154C142,138.953 139.289,133.738 128,132.398Z" style="fill:rgb(155,133,121);fill-rule:nonzero;"/>
            </g>
            <g transform="matrix(4.16667,0,0,4.16667,609.489,802.495)">
                <path d="M108,164L112,164C120.836,164 128,156.838 128,148L128,132.398C125.697,132.125 123.068,132 120,132C101.885,132 98,135.885 98,154C98,159.545 102.426,164 108,164Z" style="fill:rgb(116,97,89);fill-rule:nonzero;"/>
            </g>
            <g transform="matrix(4.16667,0,0,4.16667,609.489,802.495)">
                <path d="M128,148C119.16,148 112,155.164 112,164C120.836,164 128,156.838 128,148Z" style="fill:rgb(237,231,223);fill-rule:nonzero;"/>
            </g>
            <g transform="matrix(4.16667,0,0,4.16667,609.489,802.495)">
                <path d="M114,100L128,114C128,100.527 122.662,88.311 114,79.321L114,100Z" style="fill:rgb(71,138,121);fill-rule:nonzero;"/>
            </g>
            <g transform="matrix(4.16667,0,0,4.16667,609.489,802.495)">
                <path d="M114,100L114,79.321C108.986,74.118 102.861,70.002 96,67.352L96,82L114,100Z" style="fill:rgb(71,138,121);fill-rule:nonzero;"/>
            </g>
            <g transform="matrix(4.16667,0,0,4.16667,609.489,802.495)">
                <path d="M96,67.352C90.414,65.196 84.347,64 78,64L96,82L96,67.352Z" style="fill:rgb(71,138,121);fill-rule:nonzero;"/>
            </g>
            <g transform="matrix(4.16667,0,0,4.16667,609.489,802.495)">
                <path d="M78,64C78,74.375 81.16,84.012 86.57,92L106,92L78,64Z" style="fill:rgb(128,199,163);fill-rule:nonzero;"/>
            </g>
            <g transform="matrix(4.16667,0,0,4.16667,609.489,802.495)">
                <path d="M106,92L86.57,92C95.558,105.275 110.76,114 128,114L106,92Z" style="fill:rgb(128,199,163);fill-rule:nonzero;"/>
            </g>
            <g transform="matrix(4.16667,0,0,4.16667,609.489,802.495)">
                <path d="M140,72.104C132.666,78.34 128,87.62 128,98L140,86L140,72.104Z" style="fill:rgb(71,138,121);fill-rule:nonzero;"/>
            </g>
            <g transform="matrix(4.16667,0,0,4.16667,609.489,802.495)">
                <path d="M162,64C153.604,64 145.932,67.059 140,72.104L140,86L162,64Z" style="fill:rgb(71,138,121);fill-rule:nonzero;"/>
            </g>
            <g transform="matrix(4.16667,0,0,4.16667,609.489,802.495)">
                <path d="M128,98C140.99,98 152.271,90.709 157.996,80L146,80L128,98Z" style="fill:rgb(128,199,163);fill-rule:nonzero;"/>
            </g>
            <g transform="matrix(4.16667,0,0,4.16667,609.489,802.495)">
                <path d="M146,80L157.996,80C160.545,75.231 162,69.788 162,64L146,80Z" style="fill:rgb(128,199,163);fill-rule:nonzero;"/>
            </g>
            <g transform="matrix(4.16667,0,0,4.16667,609.489,802.495)">
                <path d="M120,134C102.99,134 100,136.99 100,154C100,171.01 102.99,174 120,174C137.01,174 140,171.01 140,154C140,136.99 137.01,134 120,134ZM120,178C100.711,178 96,173.289 96,154C96,134.711 100.711,130 120,130C139.289,130 144,134.711 144,154C144,173.289 139.289,178 120,178Z" style="fill:rgb(76,69,65);fill-rule:nonzero;"/>
            </g>
            <g transform="matrix(4.16667,0,0,4.16667,609.489,802.495)">
                <path d="M156.746,78L150.828,78L159.555,69.274C159.041,72.356 158.076,75.282 156.746,78ZM133.273,95.555L146.828,82L154.432,82C149.609,89.059 142.041,94.094 133.273,95.555ZM138,76.891L138,85.172L130.445,92.727C131.445,86.715 134.137,81.278 138,76.891ZM142,73.065C146.182,69.704 151.213,67.364 156.727,66.446L142,81.172L142,73.065ZM114.168,161.832C115.102,155.844 119.844,151.102 125.832,150.168C124.898,156.156 120.156,160.898 114.168,161.832ZM116,99.172L116,84.788C121.254,91.604 124.709,99.85 125.676,108.848L116,99.172ZM90.597,94L105.172,94L122.848,111.676C109.844,110.277 98.386,103.691 90.597,94ZM87.722,90C83.746,83.864 81.144,76.778 80.324,69.153L101.172,90L87.722,90ZM94,68.77L94,77.172L83.152,66.325C86.912,66.729 90.548,67.545 94,68.77ZM98,70.391C103.238,72.805 107.979,76.12 112,80.161L112,95.172L98,81.172L98,70.391ZM162,62C148.066,62 135.98,69.973 130,81.584L130,76C130,73.791 128.209,72 126,72L126,94.014C118.15,75.233 99.593,62 78,62L76,62L76,64C76,92.004 98.25,114.893 126,115.949L126,146.117C117.67,147.043 111.043,153.67 110.117,162L108,162C103.514,162 100,158.486 100,154L96,154C96,160.617 101.383,166 108,166L112,166C121.926,166 130,157.926 130,148L130,99.899C148.918,98.852 164,83.174 164,64L164,62L162,62Z" style="fill:rgb(76,69,65);fill-rule:nonzero;"/>
            </g>
        </g>
        <g transform="matrix(2.46189,0,0,2.46189,731.481,-4483.16)">
            <g transform="matrix(278.027,0,0,278.027,156.507,2517)">
                <path d="M0.485,-0.546L0.485,-0.7L0.06,-0.7L0.06,-0L0.22,-0L0.22,-0.257L0.48,-0.257L0.48,-0.411L0.22,-0.411L0.22,-0.546L0.485,-0.546Z" style="fill:rgb(76,69,65);fill-rule:nonzero;"/>
            </g>
            <g transform="matrix(278.027,0,0,278.027,292.74,2517)">
                <path d="M0.505,-0L0.68,-0L0.442,-0.7L0.238,-0.7L0,-0L0.175,-0L0.21,-0.11L0.47,-0.11L0.505,-0ZM0.258,-0.26L0.34,-0.517L0.422,-0.26L0.258,-0.26Z" style="fill:rgb(76,69,65);fill-rule:nonzero;"/>
            </g>
            <g transform="matrix(278.027,0,0,278.027,481.798,2517)">
                <path d="M0.428,-0L0.6,-0L0.451,-0.257C0.528,-0.296 0.58,-0.374 0.58,-0.46C0.58,-0.593 0.473,-0.7 0.34,-0.7L0.06,-0.7L0.06,-0L0.22,-0L0.22,-0.23L0.296,-0.23L0.428,-0ZM0.22,-0.55L0.34,-0.55C0.384,-0.55 0.42,-0.511 0.42,-0.46C0.42,-0.409 0.384,-0.37 0.34,-0.37L0.22,-0.37L0.22,-0.55Z" style="fill:rgb(76,69,65);fill-rule:nonzero;"/>
            </g>
            <g transform="matrix(278.027,0,0,278.027,652.785,2517)">
                <path d="M0.76,-0.7L0.6,-0.7L0.41,-0.389L0.22,-0.7L0.06,-0.7L0.06,-0L0.22,-0L0.22,-0.407L0.401,-0.11L0.419,-0.11L0.6,-0.407L0.6,-0L0.76,-0L0.76,-0.7Z" style="fill:rgb(76,69,65);fill-rule:nonzero;"/>
            </g>
        </g>
        <g transform="matrix(1.62276,0,0,1.62276,899.368,-2932.07)">
            <g transform="matrix(278.027,0,0,278.027,156.507,2517)">
                <path d="M0.53,-0.7L0.01,-0.7L0.01,-0.546L0.19,-0.546L0.19,-0L0.35,-0L0.35,-0.546L0.53,-0.546L0.53,-0.7Z" style="fill:rgb(76,69,65);fill-rule:nonzero;"/>
            </g>
            <g transform="matrix(278.027,0,0,278.027,306.642,2517)">
                <rect x="0.06" y="-0.7" width="0.16" height="0.7" style="fill:rgb(76,69,65);fill-rule:nonzero;"/>
            </g>
            <g transform="matrix(278.027,0,0,278.027,384.489,2517)">
                <path d="M0.45,-0.7L0.45,-0.32L0.18,-0.7L0.06,-0.7L0.06,-0L0.22,-0L0.22,-0.38L0.49,-0L0.61,-0L0.61,-0.7L0.45,-0.7Z" style="fill:rgb(76,69,65);fill-rule:nonzero;"/>
            </g>
            <g transform="matrix(278.027,0,0,278.027,570.767,2517)">
                <path d="M0.63,-0.7L0.448,-0.7L0.315,-0.43L0.182,-0.7L0,-0.7L0.235,-0.269L0.235,-0L0.395,-0L0.395,-0.269L0.63,-0.7Z" style="fill:rgb(76,69,65);fill-rule:nonzero;"/>
            </g>
            <g transform="matrix(278.027,0,0,278.027,815.43,2517)">
                <path d="M0.494,-0.363C0.532,-0.396 0.555,-0.442 0.555,-0.5C0.555,-0.621 0.456,-0.7 0.334,-0.7L0.06,-0.7L0.06,-0L0.354,-0C0.479,-0 0.58,-0.081 0.58,-0.205C0.58,-0.276 0.546,-0.33 0.494,-0.363ZM0.334,-0.55C0.371,-0.55 0.395,-0.524 0.395,-0.488C0.395,-0.452 0.37,-0.426 0.334,-0.426L0.22,-0.426L0.22,-0.55L0.334,-0.55ZM0.354,-0.15L0.22,-0.15L0.22,-0.284L0.354,-0.284C0.394,-0.284 0.42,-0.256 0.42,-0.217C0.42,-0.178 0.394,-0.15 0.354,-0.15Z" style="fill:rgb(76,69,65);fill-rule:nonzero;"/>
            </g>
            <g transform="matrix(278.027,0,0,278.027,982.246,2517)">
                <rect x="0.06" y="-0.7" width="0.16" height="0.7" style="fill:rgb(76,69,65);fill-rule:nonzero;"/>
            </g>
            <g transform="matrix(278.027,0,0,278.027,1060.09,2517)">
                <path d="M0.53,-0.7L0.01,-0.7L0.01,-0.546L0.19,-0.546L0.19,-0L0.35,-0L0.35,-0.546L0.53,-0.546L0.53,-0.7Z" style="fill:rgb(76,69,65);fill-rule:nonzero;"/>
            </g>
        </g>
    </g>
</svg>
